<svg width="16" height="16" fill="none" xmlns="http://www.w3.org/2000/svg">
  <g clip-path="url(#clip0)" fill="#fff">
    <path d="M10.2 5.8c-.2 0-.37.16-.37.37v7.08a.37.37 0 00.75 0V6.17c0-.2-.17-.37-.37-.37zM5.79 5.8c-.21 0-.38.16-.38.37v7.08a.37.37 0 10.75 0V6.17c0-.2-.17-.37-.37-.37z"/>
    <path d="M2.56 4.76V14c0 .54.2 1.05.55 1.42.35.37.83.58 1.34.58h7.1c.5 0 .98-.21 1.33-.58.35-.37.55-.88.55-1.42V4.76a1.43 1.43 0 00-.37-2.81h-1.92v-.47A1.47 1.47 0 009.66 0H6.33a1.47 1.47 0 00-1.48 1.48v.47H2.93a1.43 1.43 0 00-.37 2.81zm8.98 10.5H4.45c-.64 0-1.14-.56-1.14-1.26V4.8h9.37V14c0 .7-.5 1.25-1.14 1.25zM5.6 1.47a.72.72 0 01.73-.73h3.33a.72.72 0 01.73.73v.47H5.6v-.47zM2.93 2.7h10.13a.67.67 0 110 1.35H2.93a.67.67 0 110-1.35z"/>
    <path d="M8 5.8c-.21 0-.38.16-.38.37v7.08a.37.37 0 00.75 0V6.17c0-.2-.17-.37-.37-.37z"/>
  </g>
  <defs>
    <clipPath id="clip0">
      <path fill="#fff" d="M0 0h16v16H0z"/>
    </clipPath>
  </defs>
</svg>
